HIERARCHY
ROOT Hips
{
  OFFSET 57.8838 95.319 338.509
  CHANNELS 6 Xposition Yposition Zposition Zrotation Xrotation Yrotation
  JOINT LeftUpLeg
  {
    OFFSET 8.64259 1.95398 -2.38835
    CHANNELS 3 Zrotation Xrotation Yrotation
    JOINT LeftLeg
    {
      OFFSET 43.7702 0 0
      CHANNELS 3 Zrotation Xrotation Yrotation
      JOINT LeftFoot
      {
        OFFSET 40.6238 0 0
        CHANNELS 3 Zrotation Xrotation Yrotation
        JOINT LeftToeBase
        {
          OFFSET 12.7242 0 0
          CHANNELS 3 Zrotation Xrotation Yrotation
          End Site
          {
            OFFSET 0 0 0
          }
        }
      }
    }
  }
  JOINT RightUpLeg
  {
    OFFSET -8.2249 1.95398 -2.59336
    CHANNELS 3 Zrotation Xrotation Yrotation
    JOINT RightLeg
    {
      OFFSET 43.5653 0 0
      CHANNELS 3 Zrotation Xrotation Yrotation
      JOINT RightFoot
      {
        OFFSET 40.6238 0 0
        CHANNELS 3 Zrotation Xrotation Yrotation
        JOINT RightToeBase
        {
          OFFSET 12.7242 0 0
          CHANNELS 3 Zrotation Xrotation Yrotation
          End Site
          {
            OFFSET 0 0 0
          }
        }
      }
    }
  }
  JOINT Spine
  {
    OFFSET 0.165834 0.87714 6.61349
    CHANNELS 3 Zrotation Xrotation Yrotation
    JOINT Spine1
    {
      OFFSET 7.38963 1.71661e-005 0
      CHANNELS 3 Zrotation Xrotation Yrotation
      JOINT Spine2
      {
        OFFSET 11.9445 1.14441e-005 0
        CHANNELS 3 Zrotation Xrotation Yrotation
        JOINT Spine3
        {
          OFFSET 14.7254 4.19617e-005 0
          CHANNELS 3 Zrotation Xrotation Yrotation
          JOINT Spine4
          {
            OFFSET 10.9679 0 0
            CHANNELS 3 Zrotation Xrotation Yrotation
            JOINT RightShoulder
            {
              OFFSET 2.46616 -1.6653 3.69651
              CHANNELS 3 Zrotation Xrotation Yrotation
              JOINT RightArm
              {
                OFFSET 13.0012 0 0
                CHANNELS 3 Zrotation Xrotation Yrotation
                JOINT RightForeArm
                {
                  OFFSET 28.7848 1.62311e-005 0
                  CHANNELS 3 Zrotation Xrotation Yrotation
                  JOINT RightHand
                  {
                    OFFSET 26.5688 1.62095e-005 0
                    CHANNELS 3 Zrotation Xrotation Yrotation
                    End Site
                    {
                      OFFSET 0 0 0
                    }
                  }
                }
              }
            }
            JOINT LeftShoulder
            {
              OFFSET 2.38034 -1.29275 -3.7523
              CHANNELS 3 Zrotation Xrotation Yrotation
              JOINT LeftArm
              {
                OFFSET 16.3182 6.07031e-005 0
                CHANNELS 3 Zrotation Xrotation Yrotation
                JOINT LeftForeArm
                {
                  OFFSET 27.0901 0 0
                  CHANNELS 3 Zrotation Xrotation Yrotation
                  JOINT LeftHand
                  {
                    OFFSET 24.5451 1.51738e-005 0
                    CHANNELS 3 Zrotation Xrotation Yrotation
                    End Site
                    {
                      OFFSET 0 0 0
                    }
                  }
                }
              }
            }
            JOINT Neck
            {
              OFFSET 5.0226 -0.0266342 0
              CHANNELS 3 Zrotation Xrotation Yrotation
              JOINT Head
              {
                OFFSET 6.69364 2.86102e-005 0
                CHANNELS 3 Zrotation Xrotation Yrotation
                End Site
                {
                  OFFSET 0 0 0
                }
              }
            }
          }
        }
      }
    }
  }
}
MOTION
Frames:	12
Frame Time:	0.0416667
17.991 98.9945 -303.577 109.707 -82.9599 109.025 -179.277 -0.639635 85.8376 -7.52509 12.3701 0.563555 59.2768 3.20996 8.89386 34.3985 2.28265 -1.48038 172.229 2.01194 92.4957 -15.2989 8.77891 -0.0639291 67.1102 1.17102 5.13398 28.1733 0.685078 2.36189 0.773126 6.82193 -90.2039 13.2346 1.43597 -0.58785 1.5643 1.40871 -0.650492 -20.9771 1.54624 -0.129012 -0.964469 1.54624 -0.129012 108.092 -44.6794 -72.1477 38.3594 -3.54959 -2.64147 -1.74475 -6.44699 -28.2321 -2.58152 -0.42424 17.6133 -85.1936 -56.0444 86.709 -35.8139 -22.2168 -17.6321 0.503146 73.9601 0.00318027 -2.53121 -0.0333127 -10.1301 12.6759 -3.99207 1.43808 -14.7451 -4.60117 2.95074 
18.1008 99.0026 -303.635 110.668 -82.3307 109.841 -179.601 -0.880312 85.5715 -7.7183 12.9476 0.799058 59.1773 3.30364 8.81336 34.1753 2.19458 -1.21219 171.754 1.847 92.1063 -15.6286 9.58065 0.147974 67.5247 1.09388 5.72974 27.761 1.20085 2.53865 0.681053 6.87383 -90.2003 13.1299 1.25541 -0.556143 1.45939 1.22972 -0.610867 -21.0805 1.36451 -0.153069 -1.06781 1.3645 -0.153074 107.552 -44.7997 -73.0578 38.3867 -3.55771 -2.56141 -2.39659 -8.28154 -27.8256 -4.06105 -0.721072 17.7947 -85.0789 -55.9998 86.8652 -36.0668 -22.1825 -17.7584 0.690593 73.6305 0.00311793 -2.42718 -0.0372213 -10.7333 12.8051 -3.87184 1.42289 -14.9079 -4.47936 2.89566 
18.1721 98.964 -303.721 112.488 -82.0824 111.433 -179.998 -1.30268 85.3257 -8.02777 15.6855 1.00343 58.8072 3.52547 9.7124 34.9994 2.52113 0.764437 171.081 1.95637 91.6093 -16.6965 10.5297 0.45364 68.4245 0.745674 6.9661 27.1592 1.94413 2.85168 0.532633 6.96963 -90.191 12.937 0.965901 -0.498879 1.2663 0.943014 -0.540915 -21.2716 1.07117 -0.185497 -1.25893 1.07118 -0.185498 106.409 -44.9137 -74.963 38.5257 -4.36103 -2.96049 -2.24414 -9.28905 -26.5461 -6.74342 -1.09571 14.7052 -84.1885 -56.2222 88.146 -35.9462 -22.0826 -18.235 0.623606 73.8571 0.00316052 -2.00843 -0.0547894 -10.2008 13.1153 -3.18964 1.44159 -14.806 -3.85386 3.23394 
18.1643 98.8623 -303.8 113.696 -82.1637 112.924 179.723 -1.46702 85.4943 -8.34714 17.2308 1.43339 58.5533 3.63514 9.84643 35.7164 2.83997 3.14961 170.879 2.21555 91.739 -17.5115 10.6536 0.722371 68.7252 0.174538 7.57506 27.4344 1.60623 2.69406 0.420462 7.06334 -90.2399 12.749 0.720331 -0.56502 1.07809 0.694768 -0.59618 -21.4583 0.856839 -0.322403 -1.44563 0.85684 -0.322407 105.355 -45.7494 -76.765 37.8959 -5.38073 -3.39624 -2.95106 -11.9259 -25.3281 -8.547 -1.0775 9.97617 -83.5043 -56.3787 89.1244 -36.0662 -21.7918 -18.5023 0.779902 72.2556 0.00288325 -1.9346 -0.0666098 -11.5259 13.8371 -2.69197 0.784991 -14.6954 -3.33069 4.41666 
18.0191 98.8448 -303.77 113.35 -82.4036 112.497 179.787 -1.30347 85.4685 -8.27953 16.3099 1.35031 58.6627 3.75768 9.77574 35.2039 2.61448 2.84893 170.849 2.75885 91.8554 -18.2314 8.37137 1.00914 68.2297 -0.842601 5.14302 30.5947 -2.41818 -0.697031 0.303675 7.13541 -90.212 12.6041 0.502178 -0.482237 0.933134 0.480452 -0.503878 -21.6024 0.62388 -0.309018 -1.58981 0.623886 -0.309021 103.897 -46.6233 -79.1877 37.6524 -6.03281 -3.5331 -3.42148 -14.4829 -24.2736 -11.1166 -0.985217 5.37928 -82.9563 -55.4456 89.8165 -36.7629 -21.6025 -18.1259 0.638069 71.8281 0.00281762 -1.99372 -0.078999 -10.7181 14.1342 -2.29125 -1.44677 -14.3066 -2.60157 6.85323 
17.6973 98.6964 -303.608 111.438 -83.0541 110.947 -179.885 -0.884767 86.0033 -8.3252 15.8194 1.3046 58.6557 3.97837 9.77329 36.0488 2.984 2.92668 171.047 3.41604 92.6054 -18.9885 7.46906 1.19187 68.2385 -2.67361 4.10367 33.4415 -6.38878 -2.51421 0.218368 7.19065 -90.2833 12.4932 0.299054 -0.60028 0.82216 0.272349 -0.61287 -21.7125 0.465629 -0.48266 -1.69988 0.465638 -0.482658 102.554 -46.5502 -81.3678 37.8162 -6.99449 -4.16658 -3.22189 -16.4632 -22.2873 -13.8313 -0.803346 1.53413 -82.0959 -55.74 91.0628 -36.924 -21.8276 -18.4309 0.672182 71.3035 0.00274127 -1.99656 -0.0858022 -9.75578 14.9882 -1.56545 -0.882352 -14.813 -2.03082 6.61351 
17.2529 98.5509 -303.111 110.841 -84.2222 110.609 -179.295 -0.74032 86.6153 -8.33256 15.1924 1.05438 58.7832 4.42853 9.75905 36.7015 3.26588 3.05302 171.346 3.87093 93.3139 -19.7754 7.26647 1.10694 68.8633 -3.89882 4.87126 33.4669 -6.47862 -3.24584 0.15156 7.25709 -90.3154 12.3597 0.151482 -0.646829 0.688602 0.122869 -0.652877 -21.8456 0.338871 -0.571403 -1.83291 0.338872 -0.571408 101.05 -47.0086 -83.8004 37.6008 -7.91667 -5.01631 -2.4198 -16.6722 -20.5453 -16.1219 -0.683625 -0.261062 -81.0978 -55.3312 92.457 -36.7156 -21.7124 -18.1461 0.11068 69.1674 0.334299 -2.50357 -0.0801296 -10.2785 15.6079 -0.700985 -1.58752 -15.0829 -1.13667 7.72958 
16.7543 98.2125 -302.117 115.057 -85.626 114.552 -179.271 -1.02629 86.4863 -8.60898 14.4 0.961233 57.9971 5.25416 10.8728 39.8756 4.72092 4.36547 171.168 4.12638 93.0629 -21.0862 6.72052 1.13369 69.6041 -4.32678 5.26626 34.0222 -7.09666 -1.47197 0.111188 7.32238 -90.325 12.2288 0.0670825 -0.65615 0.557735 0.0381507 -0.658465 -21.9763 0.261174 -0.605661 -1.96361 0.261183 -0.605649 99.5208 -47.1024 -86.2664 37.3661 -8.66981 -5.12833 -2.96157 -17.4995 -20.3944 -14.9064 -0.68356 0.141313 -80.1959 -55.1997 93.738 -35.5265 -21.2062 -16.5345 3.52142 66.6092 -4.24869 -3.50801 -0.0232899 -11.1433 13.9328 -0.184602 -3.52154 -13.9988 -0.419587 10.9901 
16.253 97.2676 -300.978 126.436 -86.6829 125.97 179.44 2.15365 85.3748 -17.1435 11.6265 1.39905 56.7504 7.15861 12.2941 46.7691 8.15263 6.73127 170.651 5.38331 92.9587 -25.5834 5.86451 1.44106 72.1477 -4.27254 5.72171 33.6964 -6.61977 -1.06582 0.143709 7.51117 -90.4209 11.8512 0.0877938 -0.84902 0.18 0.0503447 -0.852073 -22.3532 0.338896 -0.783393 -2.34057 0.33889 -0.783401 98.7047 -46.9314 -87.5947 36.4549 -9.35503 -6.45957 -2.43255 -15.5795 -19.9543 -13.4999 -0.756597 1.34345 -79.3833 -54.9596 94.8927 -35.4311 -21.2995 -15.6495 6.09723 64.6735 -7.52149 -3.46694 -0.026214 -11.069 13.8767 0.583093 -4.15266 -13.9593 0.362644 12.2798 
15.7777 96.0454 -299.605 129.67 -85.8386 129.418 179.302 14.0431 85.9414 -40.6085 9.00292 2.48713 57.4587 6.46953 9.56209 50.3532 10.6892 11.8804 170.007 6.36551 93.14 -31.2197 8.54383 1.43904 76.0648 -2.9115 7.61536 32.0597 -4.27631 2.06469 0.264027 7.84709 -90.6052 11.1797 0.244245 -1.22976 -0.491854 0.189885 -1.23932 -23.0233 0.60252 -1.09953 -3.01065 0.602524 -1.09953 98.0786 -46.5752 -88.638 35.2258 -8.80928 -7.33564 -1.36188 -12.3814 -20.1793 -13.9158 -0.830227 1.77309 -79.28 -55.1021 95.0448 -35.779 -20.7453 -16.0883 6.51948 63.1516 -8.19869 -3.87204 0.0092104 -11.974 13.8569 0.341625 -3.83401 -13.2854 0.143706 11.9826 
15.171 95.8945 -296.777 136.222 -86.1035 135.342 -178.62 21.226 84.7183 -46.8737 12.2714 1.15867 56.0349 4.11843 12.4967 50.8307 11.0983 12.6455 170.111 3.68216 92.9762 -29.9663 8.95427 0.904306 76.7371 -2.79805 7.85085 31.7084 -3.83715 1.86624 0.494059 8.01833 -90.5996 10.8396 0.706808 -1.25814 -0.831846 0.650752 -1.28803 -23.3652 1.05224 -0.987586 -3.35257 1.05224 -0.987585 97.4274 -46.93 -89.6568 34.0291 -9.95105 -8.01098 -0.533389 -11.4626 -19.7419 -17.5219 -0.892724 0.719648 -79.1651 -55.2266 95.2123 -34.1431 -20.602 -13.4335 8.1194 61.9693 -11.3345 -3.40522 -0.0179481 -12.3562 12.67 0.0505611 -3.17139 -13.7061 -0.216447 10.3148 
14.8983 96.2412 -293.733 129.249 -88.3213 125.937 179.782 23.2437 82.9696 -29.2164 5.10696 -0.66495 56.189 2.75469 7.17096 46.4315 8.56875 11.5048 169.828 2.58174 90.5691 -26.914 8.39189 0.330732 75.9145 -4.42565 8.98011 33.8278 -6.53471 2.16634 0.704377 8.0239 -90.3601 10.8305 1.23628 -0.831438 -0.840127 1.19849 -0.885058 -23.3793 1.429 -0.421401 -3.36664 1.42899 -0.421409 97.6384 -45.9427 -89.4126 34.4588 -11.182 -8.93902 -1.69701 -10.5769 -22.8291 -14.9454 -1.01887 2.78638 -79.2111 -55.9584 95.1655 -32.1009 -21.6179 -10.5395 10.3449 64.4199 -13.7548 -4.14373 0.0160113 -11.2537 13.8775 -0.185404 -2.21984 -14.7608 -0.732318 10.0684 
